  0
SECTION
  2
HEADER
  9
$ACADVER
  1
AC1006
  9
$EXTMIN
 10
0.000000
 20
0.000000
 30
0.000000
  9
$EXTMAX
 10
524.000000
 20
476.000000
 30
0.000000
  0
ENDSEC
  0
SECTION
  2
ENTITIES
  0
POLYLINE
  8
0
 66
1
 70
1
  0
VERTEX
  8
0
 10
221.194595
 20
408.236617
 42
-0.017088
  0
VERTEX
  8
0
 10
220.858589
 20
399.125544
 42
-0.010213
  0
VERTEX
  8
0
 10
219.868291
 20
388.328066
 42
-0.006130
  0
VERTEX
  8
0
 10
218.591036
 20
378.092512
 42
-0.104672
  0
VERTEX
  8
0
 10
217.451522
 20
374.921561
 42
-0.325383
  0
VERTEX
  8
0
 10
216.981393
 20
374.729374
 42
-0.016201
  0
VERTEX
  8
0
 10
215.281035
 20
375.206356
 42
-0.020943
  0
VERTEX
  8
0
 10
213.173649
 20
375.970284
 42
-0.013027
  0
VERTEX
  8
0
 10
210.767908
 20
377.032240
 42
0.044779
  0
VERTEX
  8
0
 10
202.863614
 20
379.937748
 42
0.018110
  0
VERTEX
  8
0
 10
191.660966
 20
382.519923
 42
0.009378
  0
VERTEX
  8
0
 10
180.514182
 20
384.451365
 42
0.459714
  0
VERTEX
  8
0
 10
179.000000
 20
383.152538
 42
0.134017
  0
VERTEX
  8
0
 10
179.145136
 20
382.620779
 42
0.008771
  0
VERTEX
  8
0
 10
179.986862
 20
381.249224
 42
0.012235
  0
VERTEX
  8
0
 10
181.072610
 20
379.636166
 42
0.008803
  0
VERTEX
  8
0
 10
182.359532
 20
377.887759
 42
-0.035481
  0
VERTEX
  8
0
 10
186.792396
 20
371.139280
 42
-0.034280
  0
VERTEX
  8
0
 10
190.284093
 20
363.755485
 42
-0.033576
  0
VERTEX
  8
0
 10
192.793881
 20
355.812911
 42
-0.031072
  0
VERTEX
  8
0
 10
194.297502
 20
347.397695
 42
-0.021716
  0
VERTEX
  8
0
 10
194.468771
 20
344.998447
 42
-0.107490
  0
VERTEX
  8
0
 10
194.219450
 20
343.675828
 42
-0.125587
  0
VERTEX
  8
0
 10
193.462888
 20
342.681328
 42
-0.034269
  0
VERTEX
  8
0
 10
191.824013
 20
341.555113
 42
0.016811
  0
VERTEX
  8
0
 10
190.276703
 20
340.569474
 42
0.004358
  0
VERTEX
  8
0
 10
187.854194
 20
338.878075
 42
0.004427
  0
VERTEX
  8
0
 10
185.125048
 20
336.900363
 42
0.004502
  0
VERTEX
  8
0
 10
182.446748
 20
334.885582
 42
-0.012037
  0
VERTEX
  8
0
 10
179.373862
 20
332.645664
 42
-0.006052
  0
VERTEX
  8
0
 10
175.394479
 20
329.959846
 42
-0.006005
  0
VERTEX
  8
0
 10
171.211005
 20
327.280792
 42
-0.008856
  0
VERTEX
  8
0
 10
167.470085
 20
325.039052
 42
0.012910
  0
VERTEX
  8
0
 10
158.053626
 20
319.291997
 42
0.020380
  0
VERTEX
  8
0
 10
150.322725
 20
313.836236
 42
0.020277
  0
VERTEX
  8
0
 10
143.033946
 20
307.748525
 42
0.012611
  0
VERTEX
  8
0
 10
134.970538
 20
300.059798
 42
0.031484
  0
VERTEX
  8
0
 10
121.805215
 20
285.079830
 42
0.037068
  0
VERTEX
  8
0
 10
111.395103
 20
269.327223
 42
0.036968
  0
VERTEX
  8
0
 10
103.403669
 20
252.172896
 42
0.031022
  0
VERTEX
  8
0
 10
97.472081
 20
233.000000
 42
0.039256
  0
VERTEX
  8
0
 10
95.971736
 20
223.675583
 42
0.014719
  0
VERTEX
  8
0
 10
95.288007
 20
210.444266
 42
0.014915
  0
VERTEX
  8
0
 10
95.391119
 20
196.936968
 42
0.031370
  0
VERTEX
  8
0
 10
96.439972
 20
186.502408
 42
0.039904
  0
VERTEX
  8
0
 10
101.440394
 20
166.302306
 42
0.040145
  0
VERTEX
  8
0
 10
109.578994
 20
147.195509
 42
0.039537
  0
VERTEX
  8
0
 10
120.800872
 20
129.373872
 42
0.036360
  0
VERTEX
  8
0
 10
134.979681
 20
113.000000
 42
0.037951
  0
VERTEX
  8
0
 10
152.998366
 20
97.557320
 42
0.038554
  0
VERTEX
  8
0
 10
173.053167
 20
85.105750
 42
0.037440
  0
VERTEX
  8
0
 10
195.335537
 20
75.587214
 42
0.031933
  0
VERTEX
  8
0
 10
220.000000
 20
68.893066
 42
0.012534
  0
VERTEX
  8
0
 10
226.890974
 20
67.666774
 42
0.018765
  0
VERTEX
  8
0
 10
232.964472
 20
66.974332
 42
0.014426
  0
VERTEX
  8
0
 10
240.128281
 20
66.636337
 42
0.004381
  0
VERTEX
  8
0
 10
251.000000
 20
66.532667
 42
0.005339
  0
VERTEX
  8
0
 10
259.449819
 20
66.616355
 42
0.006889
  0
VERTEX
  8
0
 10
267.205605
 20
66.882946
 42
0.007351
  0
VERTEX
  8
0
 10
273.718595
 20
67.292758
 42
0.024038
  0
VERTEX
  8
0
 10
278.000000
 20
67.833382
 42
0.033183
  0
VERTEX
  8
0
 10
304.219886
 20
74.250283
 42
0.039535
  0
VERTEX
  8
0
 10
327.807483
 20
83.819119
 42
0.040745
  0
VERTEX
  8
0
 10
348.995315
 20
96.689122
 42
0.039475
  0
VERTEX
  8
0
 10
368.057662
 20
112.948690
 42
0.043040
  0
VERTEX
  8
0
 10
385.687052
 20
133.894051
 42
0.052572
  0
VERTEX
  8
0
 10
398.150260
 20
156.250082
 42
0.053556
  0
VERTEX
  8
0
 10
405.515388
 20
180.356646
 42
0.047412
  0
VERTEX
  8
0
 10
408.000000
 20
206.500000
 42
0.047331
  0
VERTEX
  8
0
 10
405.513503
 20
232.708220
 42
0.053455
  0
VERTEX
  8
0
 10
398.142459
 20
256.879558
 42
0.052644
  0
VERTEX
  8
0
 10
385.693762
 20
279.240137
 42
0.043687
  0
VERTEX
  8
0
 10
368.128874
 20
300.072708
 42
0.013876
  0
VERTEX
  8
0
 10
359.264221
 20
308.417971
 42
0.019357
  0
VERTEX
  8
0
 10
350.856823
 20
315.339513
 42
0.019995
  0
VERTEX
  8
0
 10
342.161241
 20
321.417983
 42
0.016471
  0
VERTEX
  8
0
 10
332.435665
 20
327.210186
 42
-0.010135
  0
VERTEX
  8
0
 10
328.956782
 20
329.222824
 42
-0.007376
  0
VERTEX
  8
0
 10
325.168255
 20
331.595422
 42
-0.007456
  0
VERTEX
  8
0
 10
321.639927
 20
333.953581
 42
-0.016205
  0
VERTEX
  8
0
 10
319.019931
 20
335.890011
 42
0.008217
  0
VERTEX
  8
0
 10
316.752615
 20
337.622449
 42
0.007552
  0
VERTEX
  8
0
 10
314.365489
 20
339.329964
 42
0.007568
  0
VERTEX
  8
0
 10
312.190724
 20
340.788239
 42
0.024579
  0
VERTEX
  8
0
 10
310.689752
 20
341.660436
 42
0.000000
  0
VERTEX
  8
0
 10
307.710971
 20
343.200823
 42
0.000000
  0
VERTEX
  8
0
 10
308.324688
 20
353.850411
 42
-0.022284
  0
VERTEX
  8
0
 10
309.398846
 20
364.331941
 42
-0.041650
  0
VERTEX
  8
0
 10
311.341327
 20
372.630467
 42
-0.045122
  0
VERTEX
  8
0
 10
314.504509
 20
380.042370
 42
-0.031676
  0
VERTEX
  8
0
 10
319.302362
 20
387.748339
 42
0.013010
  0
VERTEX
  8
0
 10
320.427924
 20
389.414244
 42
0.020686
  0
VERTEX
  8
0
 10
321.292816
 20
390.901244
 42
0.015874
  0
VERTEX
  8
0
 10
321.889352
 20
392.124604
 42
0.311350
  0
VERTEX
  8
0
 10
321.817454
 20
392.515879
 42
0.239332
  0
VERTEX
  8
0
 10
320.267070
 20
393.022050
 42
0.006410
  0
VERTEX
  8
0
 10
312.966995
 20
391.790903
 42
0.013884
  0
VERTEX
  8
0
 10
305.395840
 20
390.195662
 42
0.020947
  0
VERTEX
  8
0
 10
298.913774
 20
388.350547
 42
0.018804
  0
VERTEX
  8
0
 10
295.453072
 20
387.060536
 42
0.013295
  0
VERTEX
  8
0
 10
291.667034
 20
385.365259
 42
0.013445
  0
VERTEX
  8
0
 10
288.130782
 20
383.549011
 42
0.027432
  0
VERTEX
  8
0
 10
285.481163
 20
381.901780
 42
0.000000
  0
VERTEX
  8
0
 10
280.050761
 20
378.097771
 42
0.000000
  0
VERTEX
  8
0
 10
279.070540
 20
381.798885
 42
-0.006967
  0
VERTEX
  8
0
 10
277.618747
 20
387.606330
 42
-0.015394
  0
VERTEX
  8
0
 10
276.709984
 20
392.083679
 42
-0.019356
  0
VERTEX
  8
0
 10
276.211311
 20
395.875669
 42
-0.022662
  0
VERTEX
  8
0
 10
276.041810
 20
399.500000
 42
-0.032060
  0
VERTEX
  8
0
 10
276.309802
 20
403.769917
 42
-0.011937
  0
VERTEX
  8
0
 10
277.212643
 20
409.717467
 42
-0.011635
  0
VERTEX
  8
0
 10
278.380020
 20
415.542328
 42
-0.038935
  0
VERTEX
  8
0
 10
279.526244
 20
419.262356
 42
0.087511
  0
VERTEX
  8
0
 10
279.704868
 20
420.133932
 42
0.441097
  0
VERTEX
  8
0
 10
279.387659
 20
420.439992
 42
0.081043
  0
VERTEX
  8
0
 10
278.408595
 20
420.215837
 42
0.004539
  0
VERTEX
  8
0
 10
275.519171
 20
419.008218
 42
0.037820
  0
VERTEX
  8
0
 10
268.111115
 20
415.146211
 42
0.028026
  0
VERTEX
  8
0
 10
260.550609
 20
409.837195
 42
0.028194
  0
VERTEX
  8
0
 10
253.695951
 20
403.769011
 42
0.040576
  0
VERTEX
  8
0
 10
248.424131
 20
397.619507
 42
0.000000
  0
VERTEX
  8
0
 10
246.348262
 20
394.757973
 42
0.000000
  0
VERTEX
  8
0
 10
241.717659
 20
401.247182
 42
0.023964
  0
VERTEX
  8
0
 10
238.015597
 20
405.942106
 42
0.017282
  0
VERTEX
  8
0
 10
233.467429
 20
410.822431
 42
0.017312
  0
VERTEX
  8
0
 10
228.606741
 20
415.363638
 42
0.024513
  0
VERTEX
  8
0
 10
223.958588
 20
419.029488
 42
0.000000
  0
VERTEX
  8
0
 10
221.228850
 20
420.973233
 42
0.000000
  0
SEQEND
  0
POLYLINE
  8
0
 66
1
 70
1
  0
VERTEX
  8
0
 10
242.144061
 20
355.500000
 42
-0.009139
  0
VERTEX
  8
0
 10
243.730808
 20
352.116594
 42
-0.008289
  0
VERTEX
  8
0
 10
245.247264
 20
348.566212
 42
-0.008329
  0
VERTEX
  8
0
 10
246.498621
 20
345.344061
 42
-0.026209
  0
VERTEX
  8
0
 10
247.186936
 20
343.129657
 42
0.000000
  0
VERTEX
  8
0
 10
248.298035
 20
338.759315
 42
0.000000
  0
VERTEX
  8
0
 10
250.442221
 20
346.129657
 42
-0.025131
  0
VERTEX
  8
0
 10
253.320389
 20
354.441334
 42
-0.026742
  0
VERTEX
  8
0
 10
256.967136
 20
362.246610
 42
-0.055739
  0
VERTEX
  8
0
 10
259.785759
 20
366.349739
 42
-0.694581
  0
VERTEX
  8
0
 10
261.000000
 20
365.897352
 42
0.114578
  0
VERTEX
  8
0
 10
261.712552
 20
362.828712
 42
0.009241
  0
VERTEX
  8
0
 10
265.527082
 20
355.407784
 42
0.012904
  0
VERTEX
  8
0
 10
269.674643
 20
348.148611
 42
0.045786
  0
VERTEX
  8
0
 10
272.857755
 20
343.841103
 42
0.043189
  0
VERTEX
  8
0
 10
280.059726
 20
337.042981
 42
0.023886
  0
VERTEX
  8
0
 10
289.893606
 20
329.985728
 42
0.021949
  0
VERTEX
  8
0
 10
301.534466
 20
323.152372
 42
0.019066
  0
VERTEX
  8
0
 10
314.281725
 20
317.013644
 42
-0.035194
  0
VERTEX
  8
0
 10
328.961624
 20
309.351922
 42
-0.028059
  0
VERTEX
  8
0
 10
343.630348
 20
299.154329
 42
-0.028225
  0
VERTEX
  8
0
 10
356.956782
 20
287.465390
 42
-0.037305
  0
VERTEX
  8
0
 10
367.598228
 20
275.326361
 42
-0.029487
  0
VERTEX
  8
0
 10
375.022167
 20
264.147306
 42
-0.026547
  0
VERTEX
  8
0
 10
381.368728
 20
251.781522
 42
-0.026744
  0
VERTEX
  8
0
 10
386.322971
 20
238.917775
 42
-0.031286
  0
VERTEX
  8
0
 10
389.579259
 20
226.249606
 42
-0.033140
  0
VERTEX
  8
0
 10
390.598483
 20
217.990921
 42
-0.014110
  0
VERTEX
  8
0
 10
390.914102
 20
206.848316
 42
-0.014166
  0
VERTEX
  8
0
 10
390.596892
 20
195.614611
 42
-0.030297
  0
VERTEX
  8
0
 10
389.583174
 20
187.000000
 42
-0.046649
  0
VERTEX
  8
0
 10
384.337760
 20
168.116216
 42
-0.042055
  0
VERTEX
  8
0
 10
375.543368
 20
149.828080
 42
-0.041363
  0
VERTEX
  8
0
 10
363.641370
 20
132.978044
 42
-0.041716
  0
VERTEX
  8
0
 10
349.159147
 20
118.368931
 42
-0.083334
  0
VERTEX
  8
0
 10
308.338348
 20
93.894601
 42
-0.078261
  0
VERTEX
  8
0
 10
260.859965
 20
83.396823
 42
-0.078183
  0
VERTEX
  8
0
 10
212.410988
 20
87.996148
 42
-0.082908
  0
VERTEX
  8
0
 10
168.778454
 20
107.279279
 42
-0.035879
  0
VERTEX
  8
0
 10
152.920382
 20
119.417424
 42
-0.036725
  0
VERTEX
  8
0
 10
139.092946
 20
133.610454
 42
-0.037911
  0
VERTEX
  8
0
 10
127.897660
 20
149.188153
 42
-0.044854
  0
VERTEX
  8
0
 10
119.885770
 20
165.452429
 42
-0.013417
  0
VERTEX
  8
0
 10
115.974857
 20
176.465188
 42
-0.034068
  0
VERTEX
  8
0
 10
113.906779
 20
184.691588
 42
-0.032370
  0
VERTEX
  8
0
 10
112.918653
 20
193.362824
 42
-0.011116
  0
VERTEX
  8
0
 10
112.583482
 20
206.000000
 42
-0.004332
  0
VERTEX
  8
0
 10
112.627437
 20
216.038901
 42
-0.018312
  0
VERTEX
  8
0
 10
112.926040
 20
222.046705
 42
-0.026084
  0
VERTEX
  8
0
 10
113.605078
 20
226.920314
 42
-0.016650
  0
VERTEX
  8
0
 10
114.875630
 20
232.500000
 42
-0.038899
  0
VERTEX
  8
0
 10
121.197511
 20
250.662990
 42
-0.039764
  0
VERTEX
  8
0
 10
130.218974
 20
267.487510
 42
-0.039416
  0
VERTEX
  8
0
 10
141.873048
 20
282.802736
 42
-0.036868
  0
VERTEX
  8
0
 10
156.031743
 20
296.472529
 42
-0.019525
  0
VERTEX
  8
0
 10
163.685289
 20
302.352425
 42
-0.014531
  0
VERTEX
  8
0
 10
172.556374
 20
308.253382
 42
-0.014766
  0
VERTEX
  8
0
 10
181.420447
 20
313.427839
 42
-0.026723
  0
VERTEX
  8
0
 10
189.000000
 20
317.046534
 42
0.033595
  0
VERTEX
  8
0
 10
195.325049
 20
320.173667
 42
0.015333
  0
VERTEX
  8
0
 10
203.152232
 20
325.048164
 42
0.015296
  0
VERTEX
  8
0
 10
210.934232
 20
330.583189
 42
0.024156
  0
VERTEX
  8
0
 10
217.212817
 20
335.840893
 42
0.028546
  0
VERTEX
  8
0
 10
222.541717
 20
341.355406
 42
0.033777
  0
VERTEX
  8
0
 10
226.891846
 20
347.153445
 42
0.034626
  0
VERTEX
  8
0
 10
230.334639
 20
353.353022
 42
0.033009
  0
VERTEX
  8
0
 10
232.951822
 20
360.066741
 42
-0.017469
  0
VERTEX
  8
0
 10
234.846770
 20
365.412715
 42
-0.439486
  0
VERTEX
  8
0
 10
236.145495
 20
365.912063
 42
-0.160539
  0
VERTEX
  8
0
 10
237.684636
 20
364.391128
 42
-0.004046
  0
SEQEND
  0
POLYLINE
  8
0
 66
1
 70
1
  0
VERTEX
  8
0
 10
255.718562
 20
309.223391
 42
0.137735
  0
VERTEX
  8
0
 10
251.870119
 20
305.028381
 42
0.050883
  0
VERTEX
  8
0
 10
248.965301
 20
297.469952
 42
0.046092
  0
VERTEX
  8
0
 10
247.344283
 20
288.199935
 42
0.043390
  0
VERTEX
  8
0
 10
247.399292
 20
278.596697
 42
0.023144
  0
VERTEX
  8
0
 10
248.615104
 20
269.889347
 42
0.011503
  0
VERTEX
  8
0
 10
250.917137
 20
258.982880
 42
0.011347
  0
VERTEX
  8
0
 10
253.844454
 20
247.693697
 42
0.015567
  0
VERTEX
  8
0
 10
257.020314
 20
237.694656
 42
0.029077
  0
VERTEX
  8
0
 10
262.884106
 20
223.701094
 42
0.070663
  0
VERTEX
  8
0
 10
269.153718
 20
214.458441
 42
0.115156
  0
VERTEX
  8
0
 10
275.622014
 20
209.991666
 42
0.194333
  0
VERTEX
  8
0
 10
282.118172
 20
210.048949
 42
0.075448
  0
VERTEX
  8
0
 10
293.801714
 20
217.105090
 42
0.007923
  0
VERTEX
  8
0
 10
318.095282
 20
237.976286
 42
0.007399
  0
VERTEX
  8
0
 10
341.839552
 20
259.674833
 42
0.086045
  0
VERTEX
  8
0
 10
349.365253
 20
269.700340
 42
0.087674
  0
VERTEX
  8
0
 10
350.866672
 20
274.599911
 42
0.090789
  0
VERTEX
  8
0
 10
350.569970
 20
279.654762
 42
0.094624
  0
VERTEX
  8
0
 10
348.535475
 20
284.109707
 42
0.105425
  0
VERTEX
  8
0
 10
345.062761
 20
287.303855
 42
0.034651
  0
VERTEX
  8
0
 10
343.267694
 20
288.202829
 42
0.002756
  0
VERTEX
  8
0
 10
338.348099
 20
290.222198
 42
0.003724
  0
VERTEX
  8
0
 10
332.442458
 20
292.557348
 42
0.002846
  0
VERTEX
  8
0
 10
325.948302
 20
295.027028
 42
0.013168
  0
VERTEX
  8
0
 10
300.465380
 20
303.794788
 42
0.026403
  0
VERTEX
  8
0
 10
279.859094
 20
309.105824
 42
0.030927
  0
VERTEX
  8
0
 10
264.148871
 20
311.281620
 42
0.158943
  0
SEQEND
  0
POLYLINE
  8
0
 66
1
 70
1
  0
VERTEX
  8
0
 10
199.500000
 20
301.437112
 42
-0.001840
  0
VERTEX
  8
0
 10
193.408505
 20
299.072429
 42
-0.001374
  0
VERTEX
  8
0
 10
186.675000
 20
296.508203
 42
-0.001388
  0
VERTEX
  8
0
 10
180.316431
 20
294.126894
 42
-0.003164
  0
VERTEX
  8
0
 10
175.500000
 20
292.372956
 42
0.024241
  0
VERTEX
  8
0
 10
162.744387
 20
287.109185
 42
0.063574
  0
VERTEX
  8
0
 10
154.405018
 20
281.801212
 42
0.094612
  0
VERTEX
  8
0
 10
149.669961
 20
276.044579
 42
0.125572
  0
VERTEX
  8
0
 10
148.000000
 20
269.500000
 42
0.123886
  0
VERTEX
  8
0
 10
149.573451
 20
263.247042
 42
0.087034
  0
VERTEX
  8
0
 10
154.080941
 20
257.518397
 42
0.052761
  0
VERTEX
  8
0
 10
162.412865
 20
251.506018
 42
0.015444
  0
VERTEX
  8
0
 10
176.375382
 20
244.080577
 42
0.013875
  0
VERTEX
  8
0
 10
189.607494
 20
238.009823
 42
0.006299
  0
VERTEX
  8
0
 10
207.231774
 20
230.769547
 42
0.002889
  0
VERTEX
  8
0
 10
225.004066
 20
223.847348
 42
0.091665
  0
VERTEX
  8
0
 10
229.587202
 20
223.000000
 42
0.089820
  0
VERTEX
  8
0
 10
231.839606
 20
223.407913
 42
0.034084
  0
VERTEX
  8
0
 10
234.759400
 20
224.734504
 42
0.032469
  0
VERTEX
  8
0
 10
237.398255
 20
226.387156
 42
0.139344
  0
VERTEX
  8
0
 10
238.537902
 20
227.827236
 42
0.040831
  0
VERTEX
  8
0
 10
239.615897
 20
231.181662
 42
0.036871
  0
VERTEX
  8
0
 10
240.180967
 20
234.783516
 42
0.029691
  0
VERTEX
  8
0
 10
240.277932
 20
239.084563
 42
0.013924
  0
VERTEX
  8
0
 10
239.918105
 20
244.640745
 42
-0.001513
  0
VERTEX
  8
0
 10
239.526196
 20
249.008250
 42
-0.000600
  0
VERTEX
  8
0
 10
239.013182
 20
255.010094
 42
-0.000593
  0
VERTEX
  8
0
 10
238.474793
 20
261.491030
 42
-0.000745
  0
VERTEX
  8
0
 10
237.991802
 20
267.500000
 42
0.024867
  0
VERTEX
  8
0
 10
234.701660
 20
292.975181
 42
0.169094
  0
VERTEX
  8
0
 10
228.565597
 20
303.863536
 42
0.229769
  0
VERTEX
  8
0
 10
218.166001
 20
306.751768
 42
0.048330
  0
SEQEND
  0
POLYLINE
  8
0
 66
1
 70
1
  0
VERTEX
  8
0
 10
138.934181
 20
238.250000
 42
0.062261
  0
VERTEX
  8
0
 10
134.390100
 20
235.183966
 42
0.067970
  0
VERTEX
  8
0
 10
130.892672
 20
231.173230
 42
0.062120
  0
VERTEX
  8
0
 10
128.374735
 20
226.056744
 42
0.040923
  0
VERTEX
  8
0
 10
126.740709
 20
219.695762
 42
0.044618
  0
VERTEX
  8
0
 10
126.209150
 20
213.104341
 42
0.049221
  0
VERTEX
  8
0
 10
126.892900
 20
206.742733
 42
0.037776
  0
VERTEX
  8
0
 10
129.017129
 20
199.381798
 42
0.014232
  0
VERTEX
  8
0
 10
133.045496
 20
189.438522
 42
-0.004705
  0
VERTEX
  8
0
 10
138.530775
 20
176.607080
 42
-0.033093
  0
VERTEX
  8
0
 10
140.721380
 20
170.178136
 42
-0.048318
  0
VERTEX
  8
0
 10
141.667746
 20
164.518442
 42
-0.016559
  0
VERTEX
  8
0
 10
141.967354
 20
156.200340
 42
0.014637
  0
VERTEX
  8
0
 10
142.235369
 20
147.869746
 42
0.065292
  0
VERTEX
  8
0
 10
143.165740
 20
143.079474
 42
0.103425
  0
VERTEX
  8
0
 10
145.059458
 20
139.835147
 42
0.070807
  0
VERTEX
  8
0
 10
148.345957
 20
137.095204
 42
0.036026
  0
VERTEX
  8
0
 10
149.970491
 20
136.246243
 42
0.019651
  0
VERTEX
  8
0
 10
152.068506
 20
135.431932
 42
0.019490
  0
VERTEX
  8
0
 10
154.276783
 20
134.768232
 42
0.029201
  0
VERTEX
  8
0
 10
156.251796
 20
134.378966
 42
0.099044
  0
VERTEX
  8
0
 10
162.985321
 20
134.791758
 42
0.076108
  0
VERTEX
  8
0
 10
169.755338
 20
137.739005
 42
0.029503
  0
VERTEX
  8
0
 10
179.722141
 20
144.877089
 42
0.002922
  0
VERTEX
  8
0
 10
202.500000
 20
163.536704
 42
0.002195
  0
VERTEX
  8
0
 10
214.889126
 20
173.899523
 42
0.003284
  0
VERTEX
  8
0
 10
225.612516
 20
183.070613
 42
0.001386
  0
VERTEX
  8
0
 10
234.706711
 20
190.996614
 42
0.070213
  0
VERTEX
  8
0
 10
236.244735
 20
192.782531
 42
0.054441
  0
VERTEX
  8
0
 10
236.914761
 20
194.128165
 42
0.026914
  0
VERTEX
  8
0
 10
237.478501
 20
195.954495
 42
0.026341
  0
VERTEX
  8
0
 10
237.864931
 20
197.932740
 42
0.034766
  0
VERTEX
  8
0
 10
237.994735
 20
199.764685
 42
0.033187
  0
VERTEX
  8
0
 10
237.842994
 20
202.091769
 42
0.067611
  0
VERTEX
  8
0
 10
237.361557
 20
203.855459
 42
0.064071
  0
VERTEX
  8
0
 10
236.407450
 20
205.485864
 42
0.027173
  0
VERTEX
  8
0
 10
234.750000
 20
207.407326
 42
0.081426
  0
VERTEX
  8
0
 10
231.626236
 20
209.743838
 42
0.019517
  0
VERTEX
  8
0
 10
225.749402
 20
212.515449
 42
0.010512
  0
VERTEX
  8
0
 10
215.808498
 20
216.493255
 42
0.001642
  0
VERTEX
  8
0
 10
196.000000
 20
223.866210
 42
-0.001305
  0
VERTEX
  8
0
 10
182.111760
 20
229.024917
 42
-0.001841
  0
VERTEX
  8
0
 10
169.764451
 20
233.699880
 42
-0.001060
  0
VERTEX
  8
0
 10
159.369693
 20
237.704676
 42
-0.025749
  0
VERTEX
  8
0
 10
156.538558
 20
238.973570
 42
0.060606
  0
VERTEX
  8
0
 10
152.370644
 20
240.503350
 42
0.068051
  0
VERTEX
  8
0
 10
148.120612
 20
240.907526
 42
0.063447
  0
VERTEX
  8
0
 10
143.677809
 20
240.154933
 42
0.043697
  0
SEQEND
  0
POLYLINE
  8
0
 66
1
 70
1
  0
VERTEX
  8
0
 10
346.450245
 20
234.543230
 42
0.023206
  0
VERTEX
  8
0
 10
327.754733
 20
223.742397
 42
0.013874
  0
VERTEX
  8
0
 10
306.534481
 20
209.286197
 42
0.008997
  0
VERTEX
  8
0
 10
287.147579
 20
194.737942
 42
0.129806
  0
VERTEX
  8
0
 10
281.980755
 20
187.953537
 42
0.087731
  0
VERTEX
  8
0
 10
281.156622
 20
184.227630
 42
0.068686
  0
VERTEX
  8
0
 10
281.547966
 20
180.098107
 42
0.055528
  0
VERTEX
  8
0
 10
283.199113
 20
175.468447
 42
0.030637
  0
VERTEX
  8
0
 10
286.160625
 20
170.232863
 42
0.023829
  0
VERTEX
  8
0
 10
294.314675
 20
158.899698
 42
0.011586
  0
VERTEX
  8
0
 10
305.731439
 20
145.193053
 42
0.007412
  0
VERTEX
  8
0
 10
317.267076
 20
132.367528
 42
0.107912
  0
VERTEX
  8
0
 10
322.239904
 20
128.903160
 42
0.060145
  0
VERTEX
  8
0
 10
323.711672
 20
128.490537
 42
0.018023
  0
VERTEX
  8
0
 10
326.028455
 20
128.217867
 42
0.017786
  0
VERTEX
  8
0
 10
328.672888
 20
128.097340
 42
0.018394
  0
VERTEX
  8
0
 10
331.289574
 20
128.167499
 42
0.048067
  0
VERTEX
  8
0
 10
336.985459
 20
129.084650
 42
0.043581
  0
VERTEX
  8
0
 10
342.600734
 20
131.088798
 42
0.040694
  0
VERTEX
  8
0
 10
348.129299
 20
134.190460
 42
0.032087
  0
VERTEX
  8
0
 10
353.566406
 20
138.382097
 42
0.064051
  0
VERTEX
  8
0
 10
359.538789
 20
145.164792
 42
0.061718
  0
VERTEX
  8
0
 10
363.689418
 20
153.320737
 42
0.029343
  0
VERTEX
  8
0
 10
367.609982
 20
166.516521
 42
0.003924
  0
VERTEX
  8
0
 10
374.008679
 20
194.827004
 42
0.014691
  0
VERTEX
  8
0
 10
377.420093
 20
213.050662
 42
0.055888
  0
VERTEX
  8
0
 10
377.928672
 20
224.597694
 42
0.097922
  0
VERTEX
  8
0
 10
375.852390
 20
232.313587
 42
0.131692
  0
VERTEX
  8
0
 10
371.102117
 20
237.730067
 42
0.039208
  0
VERTEX
  8
0
 10
369.213062
 20
238.788162
 42
0.044636
  0
VERTEX
  8
0
 10
367.260767
 20
239.485337
 42
0.040088
  0
VERTEX
  8
0
 10
365.045715
 20
239.873885
 42
0.023383
  0
VERTEX
  8
0
 10
362.350433
 20
240.000000
 42
0.038213
  0
VERTEX
  8
0
 10
359.076901
 20
239.749449
 42
0.044483
  0
VERTEX
  8
0
 10
356.047635
 20
239.002720
 42
0.029406
  0
VERTEX
  8
0
 10
352.331336
 20
237.477768
 42
0.007323
  0
SEQEND
  0
POLYLINE
  8
0
 66
1
 70
1
  0
VERTEX
  8
0
 10
250.500000
 20
191.813121
 42
0.057570
  0
VERTEX
  8
0
 10
241.883406
 20
185.559541
 42
0.005733
  0
VERTEX
  8
0
 10
223.270172
 20
168.069916
 42
0.007600
  0
VERTEX
  8
0
 10
204.988931
 20
149.950569
 42
0.025152
  0
VERTEX
  8
0
 10
193.761419
 20
137.261268
 42
0.021764
  0
VERTEX
  8
0
 10
189.171640
 20
130.973414
 42
0.066363
  0
VERTEX
  8
0
 10
186.856064
 20
126.234238
 42
0.095533
  0
VERTEX
  8
0
 10
186.309075
 20
122.097627
 42
0.085496
  0
VERTEX
  8
0
 10
187.295530
 20
117.876927
 42
0.066983
  0
VERTEX
  8
0
 10
189.265226
 20
114.545369
 42
0.089692
  0
VERTEX
  8
0
 10
191.889324
 20
112.224360
 42
0.049568
  0
VERTEX
  8
0
 10
196.256086
 20
110.135268
 42
0.008413
  0
VERTEX
  8
0
 10
205.000000
 20
107.136890
 42
0.008295
  0
VERTEX
  8
0
 10
224.976731
 20
101.024505
 42
0.013778
  0
VERTEX
  8
0
 10
242.027904
 20
96.620008
 42
0.016279
  0
VERTEX
  8
0
 10
256.734646
 20
93.750812
 42
0.025758
  0
VERTEX
  8
0
 10
269.500000
 20
92.358840
 42
0.027682
  0
VERTEX
  8
0
 10
276.465914
 20
92.346580
 42
0.079083
  0
VERTEX
  8
0
 10
281.189293
 20
93.360380
 42
0.105257
  0
VERTEX
  8
0
 10
284.571598
 20
95.571558
 42
0.075984
  0
VERTEX
  8
0
 10
287.235965
 20
99.222956
 42
0.056524
  0
VERTEX
  8
0
 10
288.914492
 20
103.605511
 42
0.027199
  0
VERTEX
  8
0
 10
290.102302
 20
109.512022
 42
0.026736
  0
VERTEX
  8
0
 10
290.675251
 20
115.817912
 42
0.036839
  0
VERTEX
  8
0
 10
290.467802
 20
121.500000
 42
0.029397
  0
VERTEX
  8
0
 10
288.471774
 20
133.204120
 42
0.017422
  0
VERTEX
  8
0
 10
284.795813
 20
146.882780
 42
0.017008
  0
VERTEX
  8
0
 10
279.987666
 20
160.856900
 42
0.020914
  0
VERTEX
  8
0
 10
274.525510
 20
173.520390
 42
0.040371
  0
VERTEX
  8
0
 10
268.784976
 20
183.323704
 42
0.077556
  0
VERTEX
  8
0
 10
262.490882
 20
189.876757
 42
0.112955
  0
VERTEX
  8
0
 10
256.233460
 20
192.714740
 42
0.180324
  0
SEQEND
  0
ENDSEC
  0
EOF
