  0
SECTION
  2
HEADER
  9
$ACADVER
  1
AC1006
  9
$EXTMIN
 10
0.000000
 20
0.000000
 30
0.000000
  9
$EXTMAX
 10
530.000000
 20
471.000000
 30
0.000000
  0
ENDSEC
  0
SECTION
  2
ENTITIES
  0
POLYLINE
  8
0
 66
1
 70
1
  0
VERTEX
  8
0
 10
224.383713
 20
397.651301
 42
-0.018155
  0
VERTEX
  8
0
 10
224.002232
 20
389.341468
 42
-0.008919
  0
VERTEX
  8
0
 10
222.944924
 20
378.805485
 42
-0.003513
  0
VERTEX
  8
0
 10
221.620440
 20
368.254593
 42
-0.164843
  0
VERTEX
  8
0
 10
220.676766
 20
366.343432
 42
-0.297366
  0
VERTEX
  8
0
 10
220.456992
 20
366.297204
 42
-0.003606
  0
VERTEX
  8
0
 10
219.040029
 20
366.859823
 42
-0.009282
  0
VERTEX
  8
0
 10
217.381751
 20
367.568263
 42
-0.005765
  0
VERTEX
  8
0
 10
215.461434
 20
368.457897
 42
0.028199
  0
VERTEX
  8
0
 10
210.242628
 20
370.596920
 42
0.020969
  0
VERTEX
  8
0
 10
204.275193
 20
372.382026
 42
0.019980
  0
VERTEX
  8
0
 10
197.840582
 20
373.745315
 42
0.019040
  0
VERTEX
  8
0
 10
191.213517
 20
374.616773
 42
0.000000
  0
VERTEX
  8
0
 10
184.013521
 20
375.285942
 42
0.000000
  0
VERTEX
  8
0
 10
189.471288
 20
367.131969
 42
-0.014207
  0
VERTEX
  8
0
 10
191.676435
 20
363.625920
 42
-0.012347
  0
VERTEX
  8
0
 10
193.789049
 20
359.834269
 42
-0.012512
  0
VERTEX
  8
0
 10
195.530656
 20
356.306838
 42
-0.035323
  0
VERTEX
  8
0
 10
196.505953
 20
353.738997
 42
-0.027166
  0
VERTEX
  8
0
 10
197.837880
 20
348.249891
 42
-0.022048
  0
VERTEX
  8
0
 10
198.680939
 20
342.251869
 42
-0.013873
  0
VERTEX
  8
0
 10
199.046146
 20
336.874344
 42
-0.425998
  0
VERTEX
  8
0
 10
198.206150
 20
336.000000
 42
0.140407
  0
VERTEX
  8
0
 10
197.504128
 20
335.798898
 42
0.005146
  0
VERTEX
  8
0
 10
195.146598
 20
334.293532
 42
0.009036
  0
VERTEX
  8
0
 10
192.383217
 20
332.416613
 42
0.006183
  0
VERTEX
  8
0
 10
189.311545
 20
330.190746
 42
-0.009194
  0
VERTEX
  8
0
 10
185.761473
 20
327.650667
 42
-0.005812
  0
VERTEX
  8
0
 10
181.532964
 20
324.813058
 42
-0.005835
  0
VERTEX
  8
0
 10
177.311480
 20
322.120613
 42
-0.010695
  0
VERTEX
  8
0
 10
173.800671
 20
320.041399
 42
0.045181
  0
VERTEX
  8
0
 10
153.009616
 20
305.707340
 42
0.044794
  0
VERTEX
  8
0
 10
135.065892
 20
287.834181
 42
0.045500
  0
VERTEX
  8
0
 10
120.840628
 20
267.346134
 42
0.050072
  0
VERTEX
  8
0
 10
111.082548
 20
245.252605
 42
0.047597
  0
VERTEX
  8
0
 10
106.096393
 20
223.030599
 42
0.049249
  0
VERTEX
  8
0
 10
105.484455
 20
200.524025
 42
0.048917
  0
VERTEX
  8
0
 10
109.294206
 20
178.195010
 42
0.045758
  0
VERTEX
  8
0
 10
117.415681
 20
156.500000
 42
0.064218
  0
VERTEX
  8
0
 10
135.550545
 20
128.693757
 42
0.059886
  0
VERTEX
  8
0
 10
160.536032
 20
105.649834
 42
0.058433
  0
VERTEX
  8
0
 10
190.890377
 20
88.725273
 42
0.055702
  0
VERTEX
  8
0
 10
224.827773
 20
78.943964
 42
0.026203
  0
VERTEX
  8
0
 10
237.814123
 20
77.418533
 42
0.016419
  0
VERTEX
  8
0
 10
253.109028
 20
76.933526
 42
0.016402
  0
VERTEX
  8
0
 10
268.441377
 20
77.454061
 42
0.025651
  0
VERTEX
  8
0
 10
281.549025
 20
79.008381
 42
0.066423
  0
VERTEX
  8
0
 10
321.117931
 20
91.334080
 42
0.070117
  0
VERTEX
  8
0
 10
355.274283
 20
113.450972
 42
0.072195
  0
VERTEX
  8
0
 10
381.196246
 20
143.486233
 42
0.077562
  0
VERTEX
  8
0
 10
396.739198
 20
178.949429
 42
0.036518
  0
VERTEX
  8
0
 10
398.819908
 20
190.052500
 42
0.019139
  0
VERTEX
  8
0
 10
399.859291
 20
204.077658
 42
0.019137
  0
VERTEX
  8
0
 10
399.823086
 20
218.171431
 42
0.035786
  0
VERTEX
  8
0
 10
398.544615
 20
229.500000
 42
0.039223
  0
VERTEX
  8
0
 10
393.323274
 20
248.945409
 42
0.040777
  0
VERTEX
  8
0
 10
385.178891
 20
267.073771
 42
0.040263
  0
VERTEX
  8
0
 10
374.091806
 20
283.841080
 42
0.036382
  0
VERTEX
  8
0
 10
360.108700
 20
299.233922
 42
0.019595
  0
VERTEX
  8
0
 10
352.704016
 20
305.747131
 42
0.014387
  0
VERTEX
  8
0
 10
344.020784
 20
312.395908
 42
0.014589
  0
VERTEX
  8
0
 10
335.241719
 20
318.344522
 42
0.025332
  0
VERTEX
  8
0
 10
327.583559
 20
322.685645
 42
-0.015481
  0
VERTEX
  8
0
 10
325.346049
 20
323.896413
 42
-0.009873
  0
VERTEX
  8
0
 10
322.818296
 20
325.434762
 42
-0.009919
  0
VERTEX
  8
0
 10
320.397178
 20
327.042860
 42
-0.018153
  0
VERTEX
  8
0
 10
318.500000
 20
328.462572
 42
0.009125
  0
VERTEX
  8
0
 10
316.660774
 20
329.891429
 42
0.005465
  0
VERTEX
  8
0
 10
314.426562
 20
331.524888
 42
0.005471
  0
VERTEX
  8
0
 10
312.166602
 20
333.102507
 42
0.009472
  0
VERTEX
  8
0
 10
310.250000
 20
334.356967
 42
0.000000
  0
VERTEX
  8
0
 10
306.000000
 20
337.025089
 42
0.000000
  0
VERTEX
  8
0
 10
306.017364
 20
344.762545
 42
-0.030392
  0
VERTEX
  8
0
 10
306.627907
 20
354.439542
 42
-0.041936
  0
VERTEX
  8
0
 10
308.421438
 20
362.954614
 42
-0.042978
  0
VERTEX
  8
0
 10
311.566314
 20
370.890025
 42
-0.034361
  0
VERTEX
  8
0
 10
316.233237
 20
378.820275
 42
0.010824
  0
VERTEX
  8
0
 10
317.336326
 20
380.507753
 42
0.017319
  0
VERTEX
  8
0
 10
318.195628
 20
381.999258
 42
0.011485
  0
VERTEX
  8
0
 10
318.816520
 20
383.236601
 42
0.316889
  0
VERTEX
  8
0
 10
318.757760
 20
383.575573
 42
0.247224
  0
VERTEX
  8
0
 10
317.445034
 20
383.982610
 42
0.003382
  0
VERTEX
  8
0
 10
308.937344
 20
382.339153
 42
0.009737
  0
VERTEX
  8
0
 10
300.855206
 20
380.556778
 42
0.030383
  0
VERTEX
  8
0
 10
295.530496
 20
378.925526
 42
0.018538
  0
VERTEX
  8
0
 10
293.041731
 20
377.887650
 42
0.010902
  0
VERTEX
  8
0
 10
290.143588
 20
376.473468
 42
0.010896
  0
VERTEX
  8
0
 10
287.304772
 20
374.931579
 42
0.018248
  0
VERTEX
  8
0
 10
284.998025
 20
373.498671
 42
-0.014639
  0
VERTEX
  8
0
 10
283.055808
 20
372.272690
 42
-0.024216
  0
VERTEX
  8
0
 10
281.341079
 20
371.368253
 42
-0.021235
  0
VERTEX
  8
0
 10
279.967296
 20
370.796343
 42
-0.356338
  0
VERTEX
  8
0
 10
279.533189
 20
370.946299
 42
-0.060906
  0
VERTEX
  8
0
 10
279.274823
 20
371.506823
 42
-0.003942
  0
VERTEX
  8
0
 10
278.739521
 20
373.222927
 42
-0.005702
  0
VERTEX
  8
0
 10
278.139428
 20
375.285897
 42
-0.004217
  0
VERTEX
  8
0
 10
277.521025
 20
377.580588
 42
-0.037471
  0
VERTEX
  8
0
 10
276.436043
 20
383.546482
 42
-0.026047
  0
VERTEX
  8
0
 10
276.073680
 20
390.388934
 42
-0.026150
  0
VERTEX
  8
0
 10
276.423667
 20
397.183887
 42
-0.039641
  0
VERTEX
  8
0
 10
277.500000
 20
403.000000
 42
0.003040
  0
VERTEX
  8
0
 10
278.066379
 20
405.162540
 42
0.004210
  0
VERTEX
  8
0
 10
278.546097
 20
407.108916
 42
0.002658
  0
VERTEX
  8
0
 10
278.926444
 20
408.748735
 42
0.051814
  0
VERTEX
  8
0
 10
278.988131
 20
409.264395
 42
0.563952
  0
VERTEX
  8
0
 10
278.267932
 20
409.715261
 42
0.007542
  0
VERTEX
  8
0
 10
272.623291
 20
406.756996
 42
0.014947
  0
VERTEX
  8
0
 10
266.607161
 20
403.250574
 42
0.019376
  0
VERTEX
  8
0
 10
261.324710
 20
399.664945
 42
0.018240
  0
VERTEX
  8
0
 10
258.716960
 20
397.592293
 42
0.013537
  0
VERTEX
  8
0
 10
255.986777
 20
395.123751
 42
0.013724
  0
VERTEX
  8
0
 10
253.534357
 20
392.650483
 42
0.029840
  0
VERTEX
  8
0
 10
251.824710
 20
390.596066
 42
-0.007439
  0
VERTEX
  8
0
 10
250.508347
 20
388.861864
 42
-0.011196
  0
VERTEX
  8
0
 10
249.305147
 20
387.393726
 42
-0.006224
  0
VERTEX
  8
0
 10
248.260678
 20
386.206175
 42
-0.194981
  0
VERTEX
  8
0
 10
247.916218
 20
386.039000
 42
-0.240007
  0
VERTEX
  8
0
 10
247.569357
 20
386.187451
 42
-0.005271
  0
VERTEX
  8
0
 10
246.377075
 20
387.647587
 42
-0.010821
  0
VERTEX
  8
0
 10
245.008853
 20
389.437819
 42
-0.006953
  0
VERTEX
  8
0
 10
243.496362
 20
391.569807
 42
0.033113
  0
VERTEX
  8
0
 10
240.046471
 20
395.930415
 42
0.013023
  0
VERTEX
  8
0
 10
234.757693
 20
401.477477
 42
0.011657
  0
VERTEX
  8
0
 10
229.360232
 20
406.606188
 42
0.059951
  0
VERTEX
  8
0
 10
226.000000
 20
408.988898
 42
0.391086
  0
VERTEX
  8
0
 10
225.225633
 20
408.792363
 42
0.109191
  0
VERTEX
  8
0
 10
224.744581
 20
407.510944
 42
0.029639
  0
VERTEX
  8
0
 10
224.495409
 20
404.491839
 42
0.003379
  0
SEQEND
  0
POLYLINE
  8
0
 66
1
 70
1
  0
VERTEX
  8
0
 10
264.310489
 20
352.328156
 42
0.015035
  0
VERTEX
  8
0
 10
265.493486
 20
349.628257
 42
0.010079
  0
VERTEX
  8
0
 10
266.999654
 20
346.612481
 42
0.010155
  0
VERTEX
  8
0
 10
268.578238
 20
343.747850
 42
0.019671
  0
VERTEX
  8
0
 10
269.974278
 20
341.537386
 42
0.061762
  0
VERTEX
  8
0
 10
276.179976
 20
334.547041
 42
0.027438
  0
VERTEX
  8
0
 10
285.884992
 20
326.912419
 42
0.025879
  0
VERTEX
  8
0
 10
297.531330
 20
319.611583
 42
0.025950
  0
VERTEX
  8
0
 10
309.859175
 20
313.560276
 42
-0.040098
  0
VERTEX
  8
0
 10
329.688576
 20
303.121220
 42
-0.043632
  0
VERTEX
  8
0
 10
347.004418
 20
289.904529
 42
-0.044456
  0
VERTEX
  8
0
 10
361.488070
 20
274.130944
 42
-0.044885
  0
VERTEX
  8
0
 10
372.903016
 20
256.093750
 42
-0.066748
  0
VERTEX
  8
0
 10
382.479976
 20
229.124936
 42
-0.070639
  0
VERTEX
  8
0
 10
384.356236
 20
201.112895
 42
-0.069798
  0
VERTEX
  8
0
 10
378.347393
 20
173.401899
 42
-0.062843
  0
VERTEX
  8
0
 10
364.821213
 20
147.320394
 42
-0.037229
  0
VERTEX
  8
0
 10
355.649251
 20
135.940382
 42
-0.028865
  0
VERTEX
  8
0
 10
344.114419
 20
124.970766
 42
-0.028300
  0
VERTEX
  8
0
 10
331.103080
 20
115.161593
 42
-0.031419
  0
VERTEX
  8
0
 10
317.500000
 20
107.253592
 42
-0.051549
  0
VERTEX
  8
0
 10
290.883196
 20
97.211818
 42
-0.048535
  0
VERTEX
  8
0
 10
262.227414
 20
92.564963
 42
-0.048273
  0
VERTEX
  8
0
 10
233.061755
 20
93.519120
 42
-0.049797
  0
VERTEX
  8
0
 10
204.935409
 20
100.065765
 42
-0.023978
  0
VERTEX
  8
0
 10
197.271811
 20
103.092498
 42
-0.011873
  0
VERTEX
  8
0
 10
187.842831
 20
107.622075
 42
-0.011866
  0
VERTEX
  8
0
 10
178.491135
 20
112.674139
 42
-0.020596
  0
VERTEX
  8
0
 10
171.014984
 20
117.363680
 42
-0.029684
  0
VERTEX
  8
0
 10
163.208775
 20
123.431679
 42
-0.016525
  0
VERTEX
  8
0
 10
154.416490
 20
131.674630
 42
-0.016527
  0
VERTEX
  8
0
 10
146.193055
 20
140.474750
 42
-0.029857
  0
VERTEX
  8
0
 10
140.156271
 20
148.272544
 42
-0.055041
  0
VERTEX
  8
0
 10
128.682516
 20
169.829233
 42
-0.056794
  0
VERTEX
  8
0
 10
122.337959
 20
193.144900
 42
-0.057552
  0
VERTEX
  8
0
 10
121.449069
 20
217.003877
 42
-0.059449
  0
VERTEX
  8
0
 10
126.059696
 20
240.165325
 42
-0.029408
  0
VERTEX
  8
0
 10
131.024991
 20
252.814654
 42
-0.032290
  0
VERTEX
  8
0
 10
137.309405
 20
264.389331
 42
-0.031470
  0
VERTEX
  8
0
 10
145.185961
 20
275.309072
 42
-0.025432
  0
VERTEX
  8
0
 10
154.921500
 20
286.000000
 42
-0.019216
  0
VERTEX
  8
0
 10
163.178861
 20
293.583070
 42
-0.023545
  0
VERTEX
  8
0
 10
171.470809
 20
299.983308
 42
-0.022959
  0
VERTEX
  8
0
 10
180.503009
 20
305.700979
 42
-0.016819
  0
VERTEX
  8
0
 10
191.000000
 20
311.230141
 42
0.027332
  0
VERTEX
  8
0
 10
207.824365
 20
320.548937
 42
0.048391
  0
VERTEX
  8
0
 10
220.371837
 20
330.230506
 42
0.057732
  0
VERTEX
  8
0
 10
229.260310
 20
340.749608
 42
0.066344
  0
VERTEX
  8
0
 10
235.019819
 20
352.559557
 42
-0.010399
  0
VERTEX
  8
0
 10
235.898716
 20
355.028070
 42
-0.016280
  0
VERTEX
  8
0
 10
236.766898
 20
357.108120
 42
-0.010486
  0
VERTEX
  8
0
 10
237.561024
 20
358.756575
 42
-0.282389
  0
VERTEX
  8
0
 10
237.957662
 20
359.000000
 42
-0.277536
  0
VERTEX
  8
0
 10
239.142682
 20
358.287336
 42
-0.004812
  0
VERTEX
  8
0
 10
242.747365
 20
351.334295
 42
-0.012386
  0
VERTEX
  8
0
 10
246.051749
 20
344.385617
 42
-0.029773
  0
VERTEX
  8
0
 10
248.056442
 20
339.053079
 42
0.000000
  0
VERTEX
  8
0
 10
249.742698
 20
333.603089
 42
0.000000
  0
VERTEX
  8
0
 10
251.448480
 20
339.551545
 42
-0.025612
  0
VERTEX
  8
0
 10
253.606581
 20
345.842272
 42
-0.016932
  0
VERTEX
  8
0
 10
256.691819
 20
352.834301
 42
-0.008687
  0
VERTEX
  8
0
 10
259.902375
 20
359.205282
 42
-0.512517
  0
VERTEX
  8
0
 10
261.002632
 20
359.359671
 42
-0.074869
  0
VERTEX
  8
0
 10
261.440489
 20
358.737874
 42
-0.006088
  0
VERTEX
  8
0
 10
262.313379
 20
356.939549
 42
-0.008079
  0
VERTEX
  8
0
 10
263.298415
 20
354.754687
 42
-0.006125
  0
SEQEND
  0
POLYLINE
  8
0
 66
1
 70
1
  0
VERTEX
  8
0
 10
258.500000
 20
305.597485
 42
0.056501
  0
VERTEX
  8
0
 10
255.552373
 20
303.876080
 42
0.080611
  0
VERTEX
  8
0
 10
253.449992
 20
301.701288
 42
0.064667
  0
VERTEX
  8
0
 10
251.847636
 20
298.611702
 42
0.024460
  0
VERTEX
  8
0
 10
250.405840
 20
293.956992
 42
0.049958
  0
VERTEX
  8
0
 10
249.202609
 20
286.082789
 42
0.031178
  0
VERTEX
  8
0
 10
249.301021
 20
276.742389
 42
0.026983
  0
VERTEX
  8
0
 10
250.666840
 20
266.030945
 42
0.018134
  0
VERTEX
  8
0
 10
253.324183
 20
253.980403
 42
0.015322
  0
VERTEX
  8
0
 10
257.700233
 20
238.985329
 42
0.031010
  0
VERTEX
  8
0
 10
262.220939
 20
227.553892
 42
0.039920
  0
VERTEX
  8
0
 10
267.018234
 20
219.143793
 42
0.080425
  0
VERTEX
  8
0
 10
272.256562
 20
213.617882
 42
0.115432
  0
VERTEX
  8
0
 10
276.949754
 20
211.512132
 42
0.156207
  0
VERTEX
  8
0
 10
281.536650
 20
212.055901
 42
0.056303
  0
VERTEX
  8
0
 10
288.078620
 20
215.980867
 42
0.005190
  0
VERTEX
  8
0
 10
303.000000
 20
227.639665
 42
0.009382
  0
VERTEX
  8
0
 10
309.188036
 20
232.771988
 42
0.004919
  0
VERTEX
  8
0
 10
316.701149
 20
239.374965
 42
0.004891
  0
VERTEX
  8
0
 10
324.271677
 20
246.296333
 42
0.007484
  0
VERTEX
  8
0
 10
330.684764
 20
252.457711
 42
0.003974
  0
VERTEX
  8
0
 10
338.298870
 20
260.116104
 42
0.019426
  0
VERTEX
  8
0
 10
342.398009
 20
264.644335
 42
0.034894
  0
VERTEX
  8
0
 10
344.751856
 20
267.892481
 42
0.075974
  0
VERTEX
  8
0
 10
345.963462
 20
270.713435
 42
0.064153
  0
VERTEX
  8
0
 10
346.406607
 20
274.214870
 42
0.070897
  0
VERTEX
  8
0
 10
345.917680
 20
277.591567
 42
0.071733
  0
VERTEX
  8
0
 10
344.513486
 20
280.664904
 42
0.068035
  0
VERTEX
  8
0
 10
342.277252
 20
283.278981
 42
0.088890
  0
VERTEX
  8
0
 10
338.560855
 20
285.557356
 42
0.003331
  0
VERTEX
  8
0
 10
323.226355
 20
291.434432
 42
0.006743
  0
VERTEX
  8
0
 10
307.634192
 20
297.052688
 42
0.014192
  0
VERTEX
  8
0
 10
295.355774
 20
300.904410
 42
0.010174
  0
VERTEX
  8
0
 10
281.388300
 20
304.549064
 42
0.027068
  0
VERTEX
  8
0
 10
271.253147
 20
306.401493
 42
0.038122
  0
VERTEX
  8
0
 10
263.767631
 20
306.779436
 42
0.097792
  0
SEQEND
  0
POLYLINE
  8
0
 66
1
 70
1
  0
VERTEX
  8
0
 10
193.500000
 20
293.819717
 42
0.006307
  0
VERTEX
  8
0
 10
175.936295
 20
286.915344
 42
0.030552
  0
VERTEX
  8
0
 10
166.284414
 20
282.273811
 42
0.056166
  0
VERTEX
  8
0
 10
160.499847
 20
278.130642
 42
0.096850
  0
VERTEX
  8
0
 10
156.956960
 20
273.411092
 42
0.061883
  0
VERTEX
  8
0
 10
155.509723
 20
269.147438
 42
0.099974
  0
VERTEX
  8
0
 10
155.493149
 20
265.328601
 42
0.091911
  0
VERTEX
  8
0
 10
156.982426
 20
261.580931
 42
0.045820
  0
VERTEX
  8
0
 10
160.096429
 20
257.511213
 42
0.080085
  0
VERTEX
  8
0
 10
167.832949
 20
251.428938
 42
0.014350
  0
VERTEX
  8
0
 10
184.187164
 20
242.961908
 42
0.015422
  0
VERTEX
  8
0
 10
203.828226
 20
234.233361
 42
0.014613
  0
VERTEX
  8
0
 10
224.322928
 20
226.562965
 42
0.008671
  0
VERTEX
  8
0
 10
228.741388
 20
225.140018
 42
0.039765
  0
VERTEX
  8
0
 10
231.371276
 20
224.566465
 42
0.063404
  0
VERTEX
  8
0
 10
233.423168
 20
224.548817
 42
0.050226
  0
VERTEX
  8
0
 10
235.590320
 20
225.029808
 42
0.101026
  0
VERTEX
  8
0
 10
238.971318
 20
226.966283
 42
0.129035
  0
VERTEX
  8
0
 10
240.969327
 20
229.933438
 42
0.078801
  0
VERTEX
  8
0
 10
241.821717
 20
234.652409
 42
0.020019
  0
VERTEX
  8
0
 10
241.676469
 20
242.457571
 42
0.005930
  0
VERTEX
  8
0
 10
239.759454
 20
269.603944
 42
0.029290
  0
VERTEX
  8
0
 10
237.606925
 20
284.777105
 42
0.054768
  0
VERTEX
  8
0
 10
234.591943
 20
294.224630
 42
0.113724
  0
VERTEX
  8
0
 10
229.967125
 20
300.374209
 42
0.125036
  0
VERTEX
  8
0
 10
225.452904
 20
302.558862
 42
0.095232
  0
VERTEX
  8
0
 10
219.939669
 20
302.625313
 42
0.040618
  0
VERTEX
  8
0
 10
211.269939
 20
300.327979
 42
0.005428
  0
SEQEND
  0
POLYLINE
  8
0
 66
1
 70
1
  0
VERTEX
  8
0
 10
149.047168
 20
239.695080
 42
0.079924
  0
VERTEX
  8
0
 10
145.407597
 20
237.854907
 42
0.047531
  0
VERTEX
  8
0
 10
141.755368
 20
234.634688
 42
0.046282
  0
VERTEX
  8
0
 10
138.651090
 20
230.640548
 42
0.060020
  0
VERTEX
  8
0
 10
136.642586
 20
226.464447
 42
0.051760
  0
VERTEX
  8
0
 10
135.400972
 20
221.038813
 42
0.033182
  0
VERTEX
  8
0
 10
135.044135
 20
214.581061
 42
0.033175
  0
VERTEX
  8
0
 10
135.544848
 20
208.130184
 42
0.051588
  0
VERTEX
  8
0
 10
136.907025
 20
202.725017
 42
0.009591
  0
VERTEX
  8
0
 10
137.983280
 20
199.943070
 42
0.002491
  0
VERTEX
  8
0
 10
139.822704
 20
195.509849
 42
0.002532
  0
VERTEX
  8
0
 10
141.970242
 20
190.477462
 42
0.002582
  0
VERTEX
  8
0
 10
144.154793
 20
185.500000
 42
0.000000
  0
VERTEX
  8
0
 10
149.495537
 20
173.500000
 42
0.000000
  0
VERTEX
  8
0
 10
149.556131
 20
161.745160
 42
0.005229
  0
VERTEX
  8
0
 10
149.660029
 20
155.091084
 42
0.029562
  0
VERTEX
  8
0
 10
149.961842
 20
151.556315
 42
0.055906
  0
VERTEX
  8
0
 10
150.573148
 20
149.220609
 42
0.068320
  0
VERTEX
  8
0
 10
151.662893
 20
147.245160
 42
0.086582
  0
VERTEX
  8
0
 10
155.583234
 20
143.537452
 42
0.083664
  0
VERTEX
  8
0
 10
160.573002
 20
141.321961
 42
0.078469
  0
VERTEX
  8
0
 10
166.295060
 20
140.780746
 42
0.064203
  0
VERTEX
  8
0
 10
172.336515
 20
141.946045
 42
0.090026
  0
VERTEX
  8
0
 10
177.709837
 20
144.869953
 42
0.001377
  0
VERTEX
  8
0
 10
205.307529
 20
167.217564
 42
0.001858
  0
VERTEX
  8
0
 10
232.180973
 20
189.268147
 42
0.062809
  0
VERTEX
  8
0
 10
237.838303
 20
195.286462
 42
0.094960
  0
VERTEX
  8
0
 10
239.441587
 20
198.694830
 42
0.080079
  0
VERTEX
  8
0
 10
239.802523
 20
202.671435
 42
0.080671
  0
VERTEX
  8
0
 10
238.897141
 20
206.533121
 42
0.098848
  0
VERTEX
  8
0
 10
236.844046
 20
209.610499
 42
0.094193
  0
VERTEX
  8
0
 10
234.615522
 20
211.127164
 42
0.004940
  0
VERTEX
  8
0
 10
226.624051
 20
214.504525
 42
0.006449
  0
VERTEX
  8
0
 10
215.815175
 20
218.785129
 42
0.002615
  0
VERTEX
  8
0
 10
200.984476
 20
224.349649
 42
-0.001637
  0
VERTEX
  8
0
 10
187.867131
 20
229.242067
 42
-0.002283
  0
VERTEX
  8
0
 10
176.165415
 20
233.711313
 42
-0.001383
  0
VERTEX
  8
0
 10
166.341874
 20
237.545999
 42
-0.029628
  0
VERTEX
  8
0
 10
163.514809
 20
238.856852
 42
0.053505
  0
VERTEX
  8
0
 10
160.203529
 20
240.204454
 42
0.055487
  0
VERTEX
  8
0
 10
156.722203
 20
240.797512
 42
0.052311
  0
VERTEX
  8
0
 10
153.019019
 20
240.624621
 42
0.039378
  0
SEQEND
  0
POLYLINE
  8
0
 66
1
 70
1
  0
VERTEX
  8
0
 10
349.000000
 20
238.113532
 42
0.032975
  0
VERTEX
  8
0
 10
339.981701
 20
233.811850
 42
0.012681
  0
VERTEX
  8
0
 10
328.046565
 20
226.716481
 42
0.011415
  0
VERTEX
  8
0
 10
314.312989
 20
217.629063
 42
0.008390
  0
VERTEX
  8
0
 10
299.500000
 20
206.960614
 42
0.008703
  0
VERTEX
  8
0
 10
287.768610
 20
197.886889
 42
0.058993
  0
VERTEX
  8
0
 10
282.633673
 20
192.667024
 42
0.126160
  0
VERTEX
  8
0
 10
280.709275
 20
188.219334
 42
0.105486
  0
VERTEX
  8
0
 10
280.981721
 20
183.067885
 42
0.094208
  0
VERTEX
  8
0
 10
285.681329
 20
173.361120
 42
0.014643
  0
VERTEX
  8
0
 10
298.956768
 20
156.536868
 42
0.013171
  0
VERTEX
  8
0
 10
313.183890
 20
140.434953
 42
0.122863
  0
VERTEX
  8
0
 10
320.893365
 20
135.424695
 42
0.125792
  0
VERTEX
  8
0
 10
329.220965
 20
134.744303
 42
0.070220
  0
VERTEX
  8
0
 10
338.971017
 20
137.856311
 42
0.065288
  0
VERTEX
  8
0
 10
348.241723
 20
143.924349
 42
0.074053
  0
VERTEX
  8
0
 10
355.186363
 20
151.954917
 42
0.043480
  0
VERTEX
  8
0
 10
357.702226
 20
156.807920
 42
0.024172
  0
VERTEX
  8
0
 10
359.945273
 20
163.088327
 42
0.015702
  0
VERTEX
  8
0
 10
362.356791
 20
172.034759
 42
0.004516
  0
VERTEX
  8
0
 10
365.526022
 20
186.019275
 42
-0.000097
  0
VERTEX
  8
0
 10
367.001048
 20
192.805646
 42
-0.000098
  0
VERTEX
  8
0
 10
368.473654
 20
199.568162
 42
-0.000095
  0
VERTEX
  8
0
 10
369.758321
 20
205.456665
 42
-0.000399
  0
VERTEX
  8
0
 10
370.535026
 20
209.000000
 42
0.027112
  0
VERTEX
  8
0
 10
371.635232
 20
215.715987
 42
0.030168
  0
VERTEX
  8
0
 10
371.949316
 20
222.275155
 42
0.032709
  0
VERTEX
  8
0
 10
371.503872
 20
227.984267
 42
0.080754
  0
VERTEX
  8
0
 10
370.248446
 20
231.980067
 42
0.098784
  0
VERTEX
  8
0
 10
366.670331
 20
236.566609
 42
0.108002
  0
VERTEX
  8
0
 10
361.710047
 20
239.251916
 42
0.097734
  0
VERTEX
  8
0
 10
355.670492
 20
239.773620
 42
0.067720
  0
SEQEND
  0
POLYLINE
  8
0
 66
1
 70
1
  0
VERTEX
  8
0
 10
251.500000
 20
194.146109
 42
0.041203
  0
VERTEX
  8
0
 10
245.883392
 20
190.015782
 42
0.004823
  0
VERTEX
  8
0
 10
234.238965
 20
179.676868
 42
0.006318
  0
VERTEX
  8
0
 10
222.122362
 20
168.426095
 42
0.011097
  0
VERTEX
  8
0
 10
212.432335
 20
158.778752
 42
0.010494
  0
VERTEX
  8
0
 10
200.170880
 20
145.468944
 42
0.048223
  0
VERTEX
  8
0
 10
194.020719
 20
136.981612
 42
0.092614
  0
VERTEX
  8
0
 10
191.690904
 20
130.518753
 42
0.140175
  0
VERTEX
  8
0
 10
192.385792
 20
124.619096
 42
0.106032
  0
VERTEX
  8
0
 10
194.507976
 20
121.563577
 42
0.075409
  0
VERTEX
  8
0
 10
197.955720
 20
119.195036
 42
0.033502
  0
VERTEX
  8
0
 10
204.168481
 20
116.681652
 42
0.004545
  0
VERTEX
  8
0
 10
217.552453
 20
112.418653
 42
0.008317
  0
VERTEX
  8
0
 10
234.484785
 20
107.501407
 42
0.016022
  0
VERTEX
  8
0
 10
248.221449
 20
104.227669
 42
0.019679
  0
VERTEX
  8
0
 10
259.875018
 20
102.316371
 42
0.028138
  0
VERTEX
  8
0
 10
270.325725
 20
101.615679
 42
0.000000
  0
VERTEX
  8
0
 10
281.151449
 20
101.500000
 42
0.000000
  0
VERTEX
  8
0
 10
284.026635
 20
104.710835
 42
0.134053
  0
VERTEX
  8
0
 10
288.232257
 20
113.119167
 42
0.060890
  0
VERTEX
  8
0
 10
289.169307
 20
125.483886
 42
0.046879
  0
VERTEX
  8
0
 10
286.958972
 20
141.205192
 42
0.025558
  0
VERTEX
  8
0
 10
281.485583
 20
159.923813
 42
0.017216
  0
VERTEX
  8
0
 10
276.627815
 20
172.448045
 42
0.031182
  0
VERTEX
  8
0
 10
271.682901
 20
182.260974
 42
0.038714
  0
VERTEX
  8
0
 10
266.668491
 20
189.489088
 42
0.083524
  0
VERTEX
  8
0
 10
261.593900
 20
193.941967
 42
0.039383
  0
VERTEX
  8
0
 10
258.759290
 20
195.399188
 42
0.094253
  0
VERTEX
  8
0
 10
256.455232
 20
195.885882
 42
0.098156
  0
VERTEX
  8
0
 10
254.191905
 20
195.484622
 42
0.045173
  0
SEQEND
  0
ENDSEC
  0
EOF
